<svg width="964" height="256" viewBox="0 0 964 256" fill="none" xmlns="http://www.w3.org/2000/svg">
<path fill-rule="evenodd" clip-rule="evenodd" d="M114.841 1.29843C124.908 -0.420664 134.116 -0.426457 142.488 1.24374L150.829 26.9576C162.26 29.3519 169.818 34.9725 178.431 37.2682C184.207 38.8076 192.739 28.2546 202.58 24.5045C210.514 29.0669 218.158 37.3965 223.912 42.6637C222.807 49.1424 213.841 65.28 214.876 69.5348C214.9 69.6342 226.705 92.5173 227.442 93.7516L252.377 97.191C256.328 104.294 257.284 119.358 256.896 128.207C240.461 137.351 235.311 139.247 233.339 141.821C232.591 142.798 228.214 161.845 228.381 163.549C228.715 166.978 232.867 168.044 244.792 182.624C243.517 190.208 232.338 206.377 227.479 211.163C219.501 210.811 210.571 206.732 203.468 206.3C195.382 205.807 195.244 213.036 185.785 216.694C185.931 224.965 187.847 236.661 186.04 244.278C176.306 248.827 165.808 253.546 153.967 255.309C147.996 250.088 140.868 236.615 135.665 234.476C131.966 232.954 127.512 234.002 119.87 234.132L102.985 255.36C92.6972 253.886 77.584 248.125 70.1438 243.784L71.1809 216.867C65.3493 214.01 59.757 205.928 53.4123 206.344C46.7098 206.783 36.7367 210.657 28.8918 211.449C24.2043 202.117 15.1939 194.296 11.7219 182.484C24.8553 169.923 28.4441 165.497 28.6809 161.907C28.8517 159.318 27.2783 157.161 26.2912 152.699C24.2795 143.609 25.7503 142.286 22.4748 140.104C15.7114 135.598 6.84646 133.14 0.158418 128.083C-0.607277 117.944 1.52994 107.375 3.83518 97.565C11.4661 95.203 27.3864 97.4271 31.092 90.7027L42.7307 68.8004C41.4814 64.2516 39.4035 59.4108 37.4319 54.9029C35.0809 49.5276 32.0123 45.7433 34.3156 41.731C36.5415 37.859 49.2282 27.5331 54.3703 24.5855C61.0039 26.8764 72.7867 38.8063 78.551 37.3365C81.7183 36.5266 88.806 30.7728 106.13 26.9537L106.132 26.9547L114.841 1.29843ZM195.874 116.958C189.894 83.7822 156.215 54.4027 116.074 62.0875C83.6224 68.2993 52.7169 100.506 61.3879 142.718C68.3781 176.748 100.054 203.922 140.536 196.836C173.404 191.082 203.317 158.249 195.874 116.958Z" fill="#0A6FB8"/>
<path fill-rule="evenodd" clip-rule="evenodd" d="M135.52 86.4845C133.971 97.0088 133.2 101.991 133.742 113.176C137.247 116.155 147.204 119.924 145.885 131.036C144.955 138.871 137.61 145.136 129.037 145.582C120.297 146.037 112.476 139.346 111.205 132.05C109.36 121.453 116.905 118.101 123.196 113.888C123.305 109.097 125.378 102.036 124.215 99.0029L119.064 86.9492C101.259 86.7716 79.3901 112.584 82.9328 134.45C91.7192 188.696 170.267 181.46 174.28 131.819C176.012 110.391 154.981 86.7906 135.522 86.4834L135.52 86.4845Z" fill="#E10600"/>
<path d="M383.614 133.68V92.9797H402.014V162.18H385.214L341.514 121.58V162.18H323.014V92.9797H339.914L383.614 133.68ZM449.571 92.0797H465.771C489.071 92.0797 502.771 106.28 502.771 127.48V127.58C502.771 148.88 489.071 163.08 465.771 163.08H449.571C426.171 163.08 412.471 148.88 412.471 127.58V127.48C412.471 106.28 426.171 92.0797 449.571 92.0797ZM449.571 145.98H465.771C477.871 145.98 484.271 138.48 484.271 127.58V127.48C484.271 116.68 477.871 109.18 465.771 109.18H449.571C437.471 109.18 430.971 116.68 430.971 127.48V127.58C430.971 138.48 437.471 145.98 449.571 145.98ZM573.751 133.68V92.9797H592.151V162.18H575.351L531.651 121.58V162.18H513.151V92.9797H530.051L573.751 133.68ZM656.108 92.9797L692.108 162.18H672.008L666.008 149.48H626.808L620.808 162.18H600.708L636.708 92.9797H656.108ZM658.208 133.68L646.408 110.58L634.608 133.68H658.208ZM774.223 100.88L763.723 114.48C759.423 110.58 754.223 109.18 746.923 109.18H731.423C718.923 109.18 712.123 116.48 712.123 127.48V127.58C712.123 138.38 718.923 145.98 730.923 145.98H745.523C752.523 145.98 758.123 144.38 760.423 140.68V139.28H741.923V124.48H776.023V162.18H764.923L763.923 155.78C759.623 160.88 753.223 163.08 744.323 163.08H729.723C707.123 163.08 693.623 148.88 693.623 127.58V127.48C693.623 106.28 707.323 92.0797 731.423 92.0797H746.923C758.823 92.0797 767.523 94.5797 774.223 100.88ZM821.153 92.0797H837.353C860.653 92.0797 874.353 106.28 874.353 127.48V127.58C874.353 148.88 860.653 163.08 837.353 163.08H821.153C797.753 163.08 784.053 148.88 784.053 127.58V127.48C784.053 106.28 797.753 92.0797 821.153 92.0797ZM821.153 145.98H837.353C849.453 145.98 855.853 138.48 855.853 127.58V127.48C855.853 116.68 849.453 109.18 837.353 109.18H821.153C809.053 109.18 802.553 116.68 802.553 127.48V127.58C802.553 138.48 809.053 145.98 821.153 145.98ZM945.333 133.68V92.9797H963.733V162.18H946.933L903.233 121.58V162.18H884.733V92.9797H901.633L945.333 133.68Z" fill="black"/>
</svg>
