<svg width="964" height="256" viewBox="0 0 964 256" fill="none" xmlns="http://www.w3.org/2000/svg">
<path fill-rule="evenodd" clip-rule="evenodd" d="M114.841 1.29839C124.908 -0.420662 134.115 -0.426432 142.487 1.2437L150.829 26.9576C162.26 29.3519 169.819 34.9725 178.431 37.2681C184.207 38.807 192.739 28.2535 202.58 24.5035C210.513 29.0659 218.158 37.3964 223.911 42.6636C222.806 49.1426 213.841 65.2803 214.876 69.5347C214.926 69.6841 226.707 92.5205 227.442 93.7515L252.377 97.19C256.328 104.293 257.284 119.357 256.896 128.206C240.46 137.35 235.311 139.247 233.339 141.821C232.591 142.797 228.215 161.841 228.381 163.548C228.715 166.977 232.867 168.043 244.792 182.624C243.516 190.208 232.338 206.376 227.479 211.162C219.501 210.81 210.571 206.731 203.468 206.299C195.382 205.806 195.243 213.035 185.784 216.693C185.93 224.965 187.847 236.661 186.04 244.278C176.306 248.827 165.807 253.545 153.967 255.308C147.996 250.087 140.868 236.614 135.665 234.475C131.966 232.953 127.512 234.002 119.869 234.132L102.984 255.359C92.6962 253.885 77.5839 248.124 70.1438 243.783L71.1809 216.867C65.3492 214.01 59.7572 205.928 53.4123 206.344C46.7099 206.783 36.7368 210.657 28.8918 211.449C24.2043 202.117 15.1938 194.295 11.7219 182.483C24.8556 169.922 28.4434 165.496 28.6799 161.906C28.8507 159.317 27.2773 157.161 26.2903 152.699C24.2785 143.609 25.7503 142.285 22.4748 140.103C15.7115 135.597 6.84643 133.14 0.158432 128.083C-0.607309 117.944 1.52995 107.374 3.83519 97.565C11.4663 95.203 27.3868 97.4265 31.092 90.7017L42.7307 68.8003C41.4815 64.2516 39.4026 59.4107 37.4309 54.9029C35.0799 49.5274 32.012 45.7424 34.3157 41.73C36.5418 37.8579 49.2283 27.533 54.3703 24.5855C61.0039 26.8766 72.7868 38.8062 78.551 37.3365C81.7183 36.5265 88.8056 30.7727 106.129 26.9537H106.132L114.841 1.29839ZM195.874 116.957C189.894 83.7813 156.215 54.4027 116.074 62.0875C83.6223 68.2992 52.7168 100.506 61.3879 142.718C68.3783 176.748 100.054 203.921 140.536 196.835C173.404 191.081 203.317 158.248 195.874 116.957Z" fill="white"/>
<path fill-rule="evenodd" clip-rule="evenodd" d="M135.52 86.4835C133.971 97.0078 133.2 101.99 133.742 113.175C137.247 116.154 147.203 119.923 145.884 131.035C144.955 138.87 137.61 145.135 129.037 145.581C120.296 146.036 112.475 139.345 111.205 132.049C109.36 121.452 116.904 118.1 123.195 113.887C123.305 109.096 125.378 102.035 124.215 99.0019L119.064 86.9483C101.258 86.7706 79.3896 112.583 82.9323 134.449C91.7187 188.695 170.267 181.459 174.28 131.818C176.012 110.39 154.98 86.7896 135.521 86.4824L135.52 86.4835Z" fill="#E10600"/>
<path d="M383.613 133.68V92.9797H402.013V162.18H385.213L341.513 121.58V162.18H323.013V92.9797H339.913L383.613 133.68ZM449.57 92.0797H465.77C489.07 92.0797 502.77 106.28 502.77 127.48V127.58C502.77 148.88 489.07 163.08 465.77 163.08H449.57C426.17 163.08 412.47 148.88 412.47 127.58V127.48C412.47 106.28 426.17 92.0797 449.57 92.0797ZM449.57 145.98H465.77C477.87 145.98 484.27 138.48 484.27 127.58V127.48C484.27 116.68 477.87 109.18 465.77 109.18H449.57C437.47 109.18 430.97 116.68 430.97 127.48V127.58C430.97 138.48 437.47 145.98 449.57 145.98ZM573.75 133.68V92.9797H592.15V162.18H575.35L531.65 121.58V162.18H513.15V92.9797H530.05L573.75 133.68ZM656.107 92.9797L692.107 162.18H672.007L666.007 149.48H626.807L620.807 162.18H600.707L636.707 92.9797H656.107ZM658.207 133.68L646.407 110.58L634.607 133.68H658.207ZM774.223 100.88L763.723 114.48C759.423 110.58 754.223 109.18 746.923 109.18H731.423C718.923 109.18 712.123 116.48 712.123 127.48V127.58C712.123 138.38 718.923 145.98 730.923 145.98H745.523C752.523 145.98 758.123 144.38 760.423 140.68V139.28H741.923V124.48H776.023V162.18H764.923L763.923 155.78C759.623 160.88 753.223 163.08 744.323 163.08H729.723C707.123 163.08 693.623 148.88 693.623 127.58V127.48C693.623 106.28 707.323 92.0797 731.423 92.0797H746.923C758.823 92.0797 767.523 94.5797 774.223 100.88ZM821.152 92.0797H837.352C860.652 92.0797 874.352 106.28 874.352 127.48V127.58C874.352 148.88 860.652 163.08 837.352 163.08H821.152C797.752 163.08 784.052 148.88 784.052 127.58V127.48C784.052 106.28 797.752 92.0797 821.152 92.0797ZM821.152 145.98H837.352C849.452 145.98 855.852 138.48 855.852 127.58V127.48C855.852 116.68 849.452 109.18 837.352 109.18H821.152C809.052 109.18 802.552 116.68 802.552 127.48V127.58C802.552 138.48 809.052 145.98 821.152 145.98ZM945.332 133.68V92.9797H963.732V162.18H946.932L903.232 121.58V162.18H884.732V92.9797H901.632L945.332 133.68Z" fill="white"/>
</svg>
